<svg width="35" height="34" viewBox="0 0 35 34" fill="none" xmlns="http://www.w3.org/2000/svg">
<path d="M1.36433 13.3084C1.4894 12.8108 1.63504 12.3196 1.80126 11.835C1.8373 11.7318 1.9027 11.6324 1.95404 11.6111C2.76263 11.2738 3.56042 10.9115 4.36737 10.5712C4.41925 10.5494 4.43564 10.6067 4.41284 10.6969C4.33856 10.9998 4.27029 11.3038 4.20803 11.6088C4.25786 11.5892 4.363 11.5387 4.41284 11.5194C4.50386 11.0681 4.60402 10.643 4.72181 10.1981C4.22057 10.4102 3.64781 10.6494 3.15094 10.8712C2.8709 10.9989 2.55987 11.0032 2.50921 10.6506C2.4348 10.1353 2.81315 9.53386 3.05031 9.10951C3.38151 8.54099 3.74407 7.99077 4.13634 7.46133C4.84903 6.51543 5.66016 5.64558 6.5565 4.86596C7.19414 4.32038 7.87005 3.81979 8.57918 3.36793C8.78399 3.23756 8.97514 3.20204 8.97255 3.49144C8.96927 3.9789 8.69401 4.5265 8.52538 4.9705C8.3416 5.45334 8.17289 5.94093 8.01924 6.43327C7.98756 6.53593 7.93376 6.61572 7.88406 6.63227C7.10986 6.89482 6.42767 7.16698 5.69726 7.53156C5.65057 7.55497 5.66108 7.51619 5.69726 7.43547C5.82379 7.1505 6.02261 6.82593 6.1606 6.54662C6.11964 6.56935 5.94589 6.6542 5.90466 6.6772C5.70094 7.0838 5.41069 7.54536 5.23392 7.96397C5.6931 7.73525 6.25734 7.47304 6.7329 7.2797C7.83313 6.82924 7.37573 8.96635 7.30077 9.39474C7.18244 10.0626 7.08654 10.7333 7.01308 11.4069C6.93116 12.1189 6.79462 12.8456 6.47826 13.4966C6.27495 13.9152 5.9575 14.3877 5.46623 14.4984C4.38389 14.7483 3.34442 15.134 2.29143 15.4806C1.00742 15.905 1.21359 13.9642 1.36433 13.3084Z" fill="#EE3224"/>
<path d="M13.0496 1.56144C12.7529 2.93501 12.5243 4.31962 12.3463 5.71337C12.3314 5.83231 12.2865 5.91398 12.2337 5.91721C11.9961 5.93236 11.7589 5.95084 11.5221 5.97264C11.13 8.66825 10.9688 11.3893 10.9931 14.1117C10.9946 14.2462 10.9565 14.3311 10.9072 14.3237C9.98401 14.1878 9.05046 14.1324 8.11741 14.1584C8.05788 14.1605 8.01801 14.0776 8.01856 13.9524C8.03795 11.4159 8.32086 8.88917 8.92832 6.42269C8.69939 6.48243 8.47182 6.5458 8.24562 6.6128C8.19538 6.62801 8.18159 6.56867 8.2119 6.4648C8.57728 5.2352 9.03113 4.03775 9.59709 2.88375C9.6405 2.79616 9.69662 2.72418 9.7369 2.70319C10.7818 2.16372 11.8798 1.73067 13.0138 1.41075C13.0575 1.39851 13.0721 1.45852 13.0496 1.56144Z" fill="#EE3224"/>
<path d="M18.1321 1.01922C18.1234 4.80235 18.1189 8.58545 18.1184 12.3685C18.1135 13.2286 18.0951 14.1666 17.7634 14.9768C17.5922 15.3952 17.2681 15.8274 16.7522 15.7066C15.6639 15.4531 14.5893 15.1479 13.5071 14.8712C12.9875 14.7385 12.6753 14.2432 12.495 13.7797C12.1963 13.0128 12.1554 12.1635 12.1729 11.3511C12.2751 8.05014 12.592 4.74988 13.2534 1.51004C13.2749 1.40603 13.3195 1.32948 13.3646 1.31804C14.0764 1.14191 14.3582 0.980205 15.0866 0.890994C15.1338 0.885344 15.39 0.976297 15.3792 1.09093C15.0761 4.36993 14.9737 7.694 14.9158 10.9864H15.2057C15.2603 7.68377 15.4091 4.38204 15.6988 1.09093C15.7091 0.975489 15.7476 0.895838 15.7951 0.890994C16.5449 0.819082 17.2986 0.793111 18.0517 0.813228C18.101 0.814035 18.1324 0.896511 18.1321 1.01922Z" fill="#EE3224"/>
<path d="M18.4331 0.80573C19.6534 0.877016 20.8626 1.07486 22.0408 1.39598C22.4812 1.52191 22.7549 1.98798 22.9413 2.36645C23.2904 3.07685 23.4659 3.86327 23.5916 4.63798C24.0222 7.43651 24.2833 10.257 24.412 13.0844C24.4442 13.9504 24.4409 14.8794 24.1281 15.7027C23.9613 16.1418 23.6398 16.6311 23.1009 16.5975C21.5535 16.5005 20.0133 16.3144 18.488 16.04C18.429 16.0292 18.3897 15.9162 18.3895 15.7581C18.3865 10.8408 18.3747 5.92342 18.354 1.00607C18.3533 0.882959 18.385 0.803039 18.4331 0.80573ZM20.9146 11.8322L21.4537 11.9339C21.3977 9.58147 21.2923 7.23084 21.1375 4.88204L20.6951 4.76945C20.8459 7.11888 20.8648 9.4783 20.9146 11.8322Z" fill="#EE3224"/>
<path d="M23.3317 1.83624C23.9969 2.08547 24.6466 2.37341 25.2772 2.69854C25.3174 2.71953 25.3706 2.80617 25.4097 2.91758C26.9201 7.22907 27.6194 11.79 27.746 16.3403C27.7498 16.4854 27.712 16.5855 27.6523 16.59C26.7233 16.6583 25.7933 16.6887 24.8621 16.6811C24.8023 16.6811 24.7621 16.5767 24.7608 16.422C24.7185 11.5905 24.2978 6.74525 23.3025 2.00953C23.2769 1.88938 23.2885 1.82036 23.3317 1.83624Z" fill="#EE3224"/>
<path d="M26.3984 5.48921C26.2321 4.89721 26.0034 4.24171 26.0161 3.61903C26.0217 3.32666 26.1561 3.17503 26.4353 3.3634C27.1448 3.81485 27.821 4.31512 28.459 4.86048C29.3096 5.60048 30.1306 6.46896 30.81 7.361C32.0607 9.02008 32.989 10.8929 33.548 12.8849C33.7849 13.7998 33.8846 15.3979 32.6878 15.7333C31.6092 16.0309 30.5145 16.2494 29.406 16.4046C28.0444 16.5952 27.9086 14.0623 27.8301 13.2569C27.5799 10.6312 27.1188 8.03009 26.3984 5.48921ZM30.2304 12.4577H30.6767C30.3144 10.5898 29.7688 8.76767 29.0204 7.01414L28.5477 6.83532C29.2864 8.60418 29.8742 10.5778 30.2304 12.4577Z" fill="#EE3224"/>
<path d="M7.31598 23.6362C7.99867 24.5968 8.29755 25.7786 8.54209 26.9081C8.66525 27.4815 8.79943 28.0521 8.94461 28.6202C9.13877 29.3806 9.39232 30.1944 9.39382 30.9874C9.39382 31.3076 9.28732 31.5978 8.92686 31.3725C7.80077 30.6944 6.7564 29.8926 5.81378 28.9825C5.77773 28.9474 5.69212 28.8635 5.60132 28.7716C2.36262 25.4603 0.676229 20.9998 0.915445 16.4069C0.923228 16.2731 0.998904 15.0692 1.06403 15.0517C1.18597 17.1658 4.11234 14.7635 6.04535 14.6866C6.64339 14.5803 6.9775 15.1111 7.15131 15.5935C7.50181 16.5664 7.52488 17.6663 7.56093 18.6862C7.58359 19.3434 7.61809 20 7.66442 20.6559C7.72914 21.6162 7.80765 22.7597 7.31598 23.6362ZM4.37507 19.8421C4.31663 19.8483 4.0487 19.8739 3.9904 19.8803C4.05412 20.5014 4.13277 21.0947 4.23426 21.7104C4.29079 21.7092 4.56199 21.7113 4.61865 21.7104C4.51889 21.0897 4.43769 20.4669 4.37507 19.8419V19.8421ZM5.44157 25.2595L4.99024 25.2134C5.16501 25.7702 5.46425 26.3024 5.67306 26.847C5.72126 26.8618 5.96015 26.91 6.00875 26.9247C5.80249 26.3749 5.61343 25.8198 5.44157 25.2594V25.2595Z" fill="#EE3224"/>
<path d="M8.01439 14.4672C9.06274 14.4296 10.0997 14.5093 11.1351 14.6705C11.2013 14.6811 11.2409 14.8117 11.2351 14.9974C11.0537 20.9249 11.3895 26.9181 12.5301 32.7479C12.5584 32.8914 12.5438 32.9759 12.4948 32.9604C11.7288 32.7178 10.9804 32.4242 10.2547 32.0817C10.2086 32.0595 10.1455 31.9544 10.0996 31.8176C8.25415 26.3577 7.64191 20.5023 7.88768 14.77C7.89628 14.5912 7.94721 14.47 8.01439 14.4672Z" fill="#EE3224"/>
<path d="M17.6786 33.7178C16.0586 33.7277 14.4452 33.5126 12.8861 33.0789C12.8359 33.0646 12.7844 32.9602 12.7576 32.8166C12.27 30.1781 11.952 27.5129 11.7486 24.8391C12.4338 23.4547 13.1672 22.0943 13.9151 20.7427L13.5987 20.6256C13.2398 21.2303 12.9255 21.8179 12.5744 22.4273C12.2549 22.3605 12.0235 22.3897 11.7034 22.3253C11.638 22.3119 11.5875 22.1537 11.5805 22.0024C11.4819 19.6864 11.4659 17.3691 11.5323 15.0506C11.5378 14.865 11.586 14.7494 11.6519 14.7616C13.6524 15.1409 15.5888 15.7772 17.58 16.1979C17.6459 16.2114 17.6925 16.3388 17.6966 16.5168C17.7627 19.4217 17.8028 22.3271 17.8168 25.233C17.0546 26.5677 16.2949 27.9036 15.5746 29.2606C15.6436 29.2706 15.8462 29.3365 15.9154 29.3459C16.2484 28.7808 16.571 28.1753 16.9152 27.6162C17.2317 27.6507 17.3966 27.6628 17.7138 27.6883C17.778 27.6933 17.8206 27.8301 17.8203 27.9894C17.8166 29.8234 17.8008 31.6573 17.773 33.4911C17.7713 33.6273 17.7334 33.7173 17.6786 33.7178Z" fill="#EE3224"/>
<path d="M24.8732 24.0283C24.5851 24.5766 24.2935 25.123 23.9984 25.6675C24.1854 26.1976 24.3643 26.7304 24.5309 27.2666C24.2688 29.036 23.8955 30.7861 23.3628 32.4963C23.3255 32.6147 23.2672 32.7046 23.2191 32.7222C22.4541 32.9942 21.671 33.214 20.8753 33.38C20.8322 33.3888 21.0899 33.2443 21.1099 33.1173C21.3491 31.5788 21.5441 30.1042 21.6708 28.5529C21.6296 28.423 21.2878 28.2891 21.2459 28.1595C21.123 29.8488 20.9492 31.5335 20.6997 33.2094C20.6806 33.3368 20.633 33.4274 20.5895 33.4355C19.7686 33.5829 18.9383 33.6738 18.1045 33.7074C18.0499 33.7093 18.0163 33.6214 18.0197 33.4863C18.1646 27.8508 18.1377 22.2106 17.9935 16.5753C17.9889 16.398 18.0297 16.2889 18.0958 16.3018C19.1234 16.4985 20.1573 16.6544 21.1975 16.7695C21.2533 16.7755 21.3045 16.8931 21.3139 17.0629C21.4304 19.2123 21.4733 21.3635 21.4426 23.5165C21.5003 23.3704 21.9182 23.1328 21.9758 22.9863C21.9972 20.986 21.9524 18.9868 21.8415 16.9884C21.8319 16.819 21.3224 16.7638 21.3781 16.7695C22.4196 16.8713 23.6506 16.97 24.6966 16.9884C24.7639 16.9893 24.8179 17.096 24.8306 17.2575C25.0049 19.5107 25.0192 21.7732 24.8732 24.0283Z" fill="#EE3224"/>
<path d="M25.2244 16.9908C26.2702 16.9863 27.3134 16.9347 28.354 16.8363C28.4207 16.8297 28.4757 16.9255 28.4897 17.0767C28.9246 21.9203 28.2303 26.9862 25.9299 31.3324C25.8718 31.4411 25.8028 31.5295 25.7584 31.5547C25.0625 31.9437 24.3408 32.286 23.5981 32.5794C23.55 32.5981 23.5443 32.5328 23.5834 32.4152C25.1742 27.5604 25.5292 22.321 25.1346 17.2572C25.1217 17.0977 25.1571 16.9915 25.2244 16.9908Z" fill="#EE3224"/>
<path d="M34.0444 15.8535C34.197 17.5973 34.0753 19.3538 33.6838 21.061C33.6521 21.1956 33.5907 21.3025 33.5324 21.3301C33.2684 21.4508 33.0029 21.5675 32.7358 21.6799C32.0896 24.4983 30.7716 27.1092 28.8368 29.2862C28.7493 29.3837 28.6648 29.4702 28.6334 29.4982C28.0406 30.0202 27.4135 30.5031 26.7562 30.9436C26.7138 30.9716 26.7304 30.9209 26.7972 30.8155C28.3315 28.346 29.2491 25.5695 29.6704 22.7118C29.3874 22.7863 29.1035 22.8572 28.8186 22.9243C28.7553 22.9391 28.7251 22.8518 28.7416 22.7053C28.9466 20.8242 28.963 18.9277 28.7906 17.0434C28.777 16.8928 28.8603 16.8873 28.927 16.8796C29.7925 16.2796 33.8894 16.688 33.8162 14.7181C33.8797 14.6962 34.0317 15.7153 34.0444 15.8535Z" fill="#EE3224"/>
</svg>
